<svg width="512" height="512" viewBox="0 0 512 512" fill="none" xmlns="http://www.w3.org/2000/svg">
  <defs>
    <linearGradient id="bg" x1="88" y1="72" x2="432" y2="448" gradientUnits="userSpaceOnUse">
      <stop offset="0" stop-color="#0F141A"/>
      <stop offset="0.52" stop-color="#1C2A30"/>
      <stop offset="1" stop-color="#365148"/>
    </linearGradient>
    <linearGradient id="accent" x1="170" y1="144" x2="352" y2="368" gradientUnits="userSpaceOnUse">
      <stop offset="0" stop-color="#FFD38E"/>
      <stop offset="0.55" stop-color="#F4B860"/>
      <stop offset="1" stop-color="#B9602D"/>
    </linearGradient>
    <filter id="glow" x="113" y="115" width="286" height="282" filterUnits="userSpaceOnUse" color-interpolation-filters="sRGB">
      <feFlood flood-opacity="0" result="BackgroundImageFix"/>
      <feBlend mode="normal" in="SourceGraphic" in2="BackgroundImageFix" result="shape"/>
      <feGaussianBlur stdDeviation="10" result="effect1_foregroundBlur_1_1"/>
    </filter>
  </defs>
  <rect x="32" y="32" width="448" height="448" rx="108" fill="url(#bg)"/>
  <rect x="64" y="64" width="384" height="384" rx="92" stroke="#FFFFFF" stroke-opacity="0.12" stroke-width="2"/>
  <path d="M170 124C170 114.059 178.059 106 188 106H324C333.941 106 342 114.059 342 124V388C342 397.941 333.941 406 324 406H188C178.059 406 170 397.941 170 388V124Z" fill="#FFFFFF" fill-opacity="0.06" stroke="#FFFFFF" stroke-opacity="0.14" stroke-width="2"/>
  <rect x="194" y="136" width="124" height="12" rx="6" fill="#FFFFFF" fill-opacity="0.18"/>
  <rect x="194" y="162" width="84" height="10" rx="5" fill="#FFFFFF" fill-opacity="0.09"/>
  <g filter="url(#glow)">
    <path d="M150 324C170.667 324 170.667 244 191.333 244C212 244 212 364 232.667 364C253.333 364 253.333 186 274 186C294.667 186 294.667 330 315.333 330C336 330 336 220 356.667 220" stroke="url(#accent)" stroke-width="34" stroke-linecap="round" stroke-linejoin="round"/>
  </g>
  <circle cx="356" cy="220" r="18" fill="#FFD38E"/>
  <circle cx="274" cy="186" r="14" fill="#F4B860"/>
  <circle cx="232.667" cy="364" r="14" fill="#F4B860"/>
</svg>
